<svg width="24" height="24" viewBox="0 0 24 24" fill="none" xmlns="http://www.w3.org/2000/svg">
<path opacity="0.3" d="M2 10H22L19 20H5L2 10Z" fill="#667085"/>
<path d="M18.5 21H5.5C4.6 21 3.8 20.4 3.6 19.5L1 10.3C1 10 1 9.6 1.2 9.4C1.4 9.1 1.7 9 2 9H22C22.3 9 22.6 9.1 22.8 9.4C23 9.6 23 10 23 10.3L20.4 19.6C20.2 20.4 19.4 21 18.5 21ZM3.3 11L5.5 19H18.5L20.7 11H3.3Z" fill="#667085"/>
<path d="M19.1 10.4L16.3 4H7.69998L4.99998 10.4L3.09998 9.6L5.79998 3.2C6.09998 2.5 6.89998 2 7.69998 2H16.4C17.2 2 17.9 2.5 18.2 3.2L20.9 9.6L19.1 10.4ZM12 17C11.4 17 11 16.6 11 16V14C11 13.4 11.4 13 12 13C12.6 13 13 13.4 13 14V16C13 16.6 12.6 17 12 17ZM16 17C15.4 17 15 16.6 15 16V14C15 13.4 15.4 13 16 13C16.6 13 17 13.4 17 14V16C17 16.6 16.6 17 16 17ZM7.99998 17C7.39998 17 6.99998 16.6 6.99998 16V14C6.99998 13.4 7.39998 13 7.99998 13C8.59998 13 8.99998 13.4 8.99998 14V16C8.99998 16.6 8.59998 17 7.99998 17Z" fill="#667085"/>
</svg>
