<svg width="24" height="24" viewBox="0 0 24 24" fill="none" xmlns="http://www.w3.org/2000/svg">
<path d="M18.5 9H13V3.5L18.5 9ZM11 12C9.343 12 8 13.343 8 15C8 16.657 9.343 18 11 18C12.657 18 13.969 16.641 14 15H11V12Z" fill="#F04438"/>
<path d="M12 14H15C15 12.343 13.641 11.031 12 11V14ZM14.951 20L18.951 24L22.951 20H14.951Z" fill="#F04438"/>
<path d="M18 16H20V21H18V16Z" fill="#F04438"/>
<path d="M13.537 21.414L12.123 20H6V4H13.172L18 8.828V14H20V8L14 2H6C4.897 2 4 2.897 4 4V20C4 21.103 4.897 22 6 22H14.123L13.537 21.414Z" fill="#F04438"/>
<path opacity="0.3" d="M12 19.877V18H14.951H16V16V14H18H19V9L13 3H5V21H13.123L12 19.877Z" fill="#F04438"/>
</svg>
