<svg width="24" height="24" viewBox="0 0 24 24" fill="none" xmlns="http://www.w3.org/2000/svg">
<path d="M24 22.6L22.2 20.8C22.7 20 23 19 23 18C23 15.2 20.8 13 18 13C15.2 13 13 15.2 13 18C13 20.8 15.2 23 18 23C19 23 20 22.7 20.8 22.2L22.6 24L24 22.6ZM18 21C16.3 21 15 19.7 15 18C15 16.3 16.3 15 18 15C19.7 15 21 16.3 21 18C21 19.7 19.7 21 18 21Z" fill="#F04438"/>
<path d="M11 18H4V8H20V11.294C20.723 11.509 21.396 11.838 22 12.26V8C22 6.9 21.1 6 20 6H12L10 4H4C2.9 4 2 4.9 2 6V18C2 19.1 2.9 20 4 20H11.294C11.105 19.366 11 18.695 11 18Z" fill="#F04438"/>
<path opacity="0.3" d="M11 18C11 14.134 14.134 11 18 11C19.075 11 20.09 11.25 21 11.683V7H3V19H11.08C11.033 18.673 11 18.34 11 18Z" fill="#F04438"/>
</svg>
