<svg width="24" height="24" viewBox="0 0 24 24" fill="none" xmlns="http://www.w3.org/2000/svg">
<path d="M9 10H5C4.448 10 4 9.552 4 9V5C4 4.448 4.448 4 5 4H9C9.552 4 10 4.448 10 5V9C10 9.552 9.552 10 9 10ZM19 10H15C14.448 10 14 9.552 14 9V5C14 4.448 14.448 4 15 4H19C19.552 4 20 4.448 20 5V9C20 9.552 19.552 10 19 10ZM9 20H5C4.448 20 4 19.552 4 19V15C4 14.448 4.448 14 5 14H9C9.552 14 10 14.448 10 15V19C10 19.552 9.552 20 9 20ZM19 20H15C14.448 20 14 19.552 14 19V15C14 14.448 14.448 14 15 14H19C19.552 14 20 14.448 20 15V19C20 19.552 19.552 20 19 20Z" stroke="#F04438" stroke-width="2" stroke-miterlimit="10"/>
<path opacity="0.3" d="M9 10H5C4.448 10 4 9.552 4 9V5C4 4.448 4.448 4 5 4H9C9.552 4 10 4.448 10 5V9C10 9.552 9.552 10 9 10ZM19 10H15C14.448 10 14 9.552 14 9V5C14 4.448 14.448 4 15 4H19C19.552 4 20 4.448 20 5V9C20 9.552 19.552 10 19 10ZM9 20H5C4.448 20 4 19.552 4 19V15C4 14.448 4.448 14 5 14H9C9.552 14 10 14.448 10 15V19C10 19.552 9.552 20 9 20ZM19 20H15C14.448 20 14 19.552 14 19V15C14 14.448 14.448 14 15 14H19C19.552 14 20 14.448 20 15V19C20 19.552 19.552 20 19 20Z" fill="#F04438"/>
</svg>
