<svg width="24" height="24" viewBox="0 0 24 24" fill="none" xmlns="http://www.w3.org/2000/svg">
<path opacity="0.3" d="M21 19C21 19.5 20.5 20 20 20H4C3.4 20 3 19.5 3 19V5C3 4.4 3.4 4 4 4H20C20.6 4 21 4.4 21 5V19Z" fill="#F04438"/>
<path d="M20 21H4C2.9 21 2 20.1 2 19V5C2 3.9 2.9 3 4 3H20C21.1 3 22 3.9 22 5V19C22 20.1 21.1 21 20 21ZM4 5V19H20V5H4Z" fill="#F04438"/>
<path d="M12 7H14V17H12V7ZM6 7H10V9H6V7ZM16 7H18V9H16V7ZM6 11H10V13H6V11ZM16 11H18V13H16V11ZM6 15H10V17H6V15ZM16 15H18V17H16V15Z" fill="#F04438"/>
</svg>
