<svg width="24" height="24" viewBox="0 0 24 24" fill="none" xmlns="http://www.w3.org/2000/svg">
<path d="M5 8H19V10H5V8ZM24 22.6L22.2 20.8C22.7 20 23 19 23 18C23 15.2 20.8 13 18 13C15.2 13 13 15.2 13 18C13 20.8 15.2 23 18 23C19 23 20 22.7 20.8 22.2L22.6 24L24 22.6ZM18 21C16.3 21 15 19.7 15 18C15 16.3 16.3 15 18 15C19.7 15 21 16.3 21 18C21 19.7 19.7 21 18 21Z" fill="#F04438"/>
<path d="M11.294 20H6V16H11.294C11.509 15.277 11.838 14.604 12.26 14H6V4H18V11C18.695 11 19.366 11.105 20 11.294V4C20 2.895 19.105 2 18 2H6C4.895 2 4 2.895 4 4V20C4 21.105 4.895 22 6 22H12.26C11.838 21.396 11.509 20.723 11.294 20Z" fill="#F04438"/>
<path opacity="0.3" d="M11 18C11 14.134 14.134 11 18 11C18.34 11 18.673 11.033 19 11.08V3H5V21H11.683C11.25 20.09 11 19.075 11 18Z" fill="#F04438"/>
</svg>
